<!--Copyright Annie Chen. February 17, 2017-->
<?xml version="1.0" encoding="UTF-8" standalone="no"?>
<!DOCTYPE svg PUBLIC "-//W3C//DTD SVG 1.1//EN" "http://www.w3.org/Graphics/SVG/1.1/DTD/svg11.dtd">
<svg width="100%" height="100%" viewBox="0 0 116 139" version="1.1" xmlns="http://www.w3.org/2000/svg" xmlns:xlink="http://www.w3.org/1999/xlink" xml:space="preserve" style="fill-rule:evenodd;clip-rule:evenodd;stroke-linecap:round;stroke-linejoin:round;stroke-miterlimit:1.5;">
    <g transform="matrix(1,0,0,1,-393,-186.067)">
        <g transform="matrix(1,0,0,1,105,-107.933)">
            <path d="M292,357L295,347L298.909,338.728L303,330L308,321.646L314,312.435L321.358,304.933L326.421,300.49L334.535,296.366L345,295L356,296L366,301L377,310.982L387,324L393.823,336L397.508,345.466L400,352.363L401.705,362.344L402.734,369.58L401.836,377.933L400.173,388.058L398,396.202L393.356,404.697L386.448,413.589L375.372,422.999L358.593,429.431L341.999,431.018L324.62,427.208L312.175,419.919L298,405.677L292,393L290,386.798L289,377.933L290,368L292,357Z" style="fill:rgb(255,177,96);stroke:black;stroke-width:2px;"/>
        </g>
    </g>
</svg>
